<svg width="48" height="48" viewBox="0 0 48 48" fill="none" xmlns="http://www.w3.org/2000/svg">
<g clip-path="url(#clip0_202_562)">
<path d="M15.9996 24.0147C15.9918 19.5971 19.5673 16.0084 23.984 16.0008C28.4016 15.9921 31.9909 19.566 31.9996 23.9844C32.0081 28.4029 28.4327 31.9907 24.0143 31.9993C19.5976 32.0077 16.0082 28.4331 15.9996 24.0147ZM11.677 24.0233C11.6902 30.8298 17.2182 36.3352 24.0229 36.3219C30.8284 36.3088 36.337 30.7823 36.3238 23.9759C36.3106 17.1718 30.7818 11.6631 23.9755 11.6764C17.1707 11.6897 11.6638 17.2184 11.677 24.0233ZM33.9055 11.1709C33.9086 12.7604 35.2008 14.0474 36.7904 14.0443C38.3805 14.0411 39.6675 12.7495 39.6651 11.1601C39.662 9.57063 38.3697 8.28288 36.7795 8.28607C35.1893 8.28916 33.9024 9.58151 33.9055 11.1709ZM14.3402 43.5522C12.0004 43.4504 10.7298 43.0615 9.88309 42.7357C8.76175 42.3019 7.96159 41.7816 7.11944 40.9458C6.27887 40.1066 5.75706 39.3088 5.31925 38.1898C4.99037 37.3429 4.59456 36.0739 4.48487 33.7341C4.3659 31.2045 4.33872 30.4456 4.32709 24.0373C4.31462 17.6306 4.33797 16.8716 4.4484 14.3397C4.54862 12.0015 4.93984 10.7292 5.26487 9.88319C5.69875 8.76035 6.21747 7.9617 7.05494 7.11963C7.8939 6.27748 8.69172 5.75726 9.81147 5.31945C10.6576 4.98888 11.9266 4.59616 14.2656 4.48507C16.7967 4.36526 17.5548 4.33966 23.9615 4.3272C30.3696 4.31473 31.1285 4.33732 33.6605 4.44851C35.9987 4.55032 37.2708 4.9376 38.1162 5.26498C39.2382 5.69885 40.0383 6.21607 40.8797 7.05504C41.7211 7.8941 42.2429 8.69032 42.6807 9.81251C43.0111 10.6562 43.4039 11.9268 43.5143 14.2651C43.6348 16.7961 43.6621 17.5551 43.6737 23.9618C43.6861 30.3701 43.6627 31.1291 43.5516 33.6595C43.4497 35.9992 43.0617 37.2708 42.7352 38.1183C42.3012 39.2389 41.7826 40.039 40.9442 40.8812C40.106 41.7201 39.3082 42.2434 38.1877 42.6813C37.3431 43.011 36.0726 43.4044 33.7352 43.5156C31.2041 43.6346 30.4458 43.6619 24.0369 43.6735C17.6302 43.686 16.8722 43.6619 14.3402 43.5522ZM14.0603 0.166195C11.5067 0.286758 9.76253 0.695695 8.23834 1.29298C6.66062 1.90807 5.32319 2.73232 3.99278 4.06826C2.66069 5.40495 1.84262 6.74473 1.23222 8.32404C0.641311 9.85207 0.240811 11.597 0.128029 14.1523C0.0160919 16.7122 -0.00959562 17.5287 0.00287313 24.0458C0.0153419 30.5622 0.0440294 31.3803 0.166092 33.9409C0.288154 36.4939 0.695686 38.2372 1.29287 39.7621C1.90872 41.3399 2.73222 42.6767 4.0689 44.0079C5.40484 45.3392 6.74547 46.1565 8.32553 46.7677C9.85197 47.3578 11.5976 47.7599 14.1521 47.8718C16.7119 47.9846 17.5292 48.0094 24.0447 47.9971C30.5633 47.9846 31.3806 47.9558 33.9405 47.8345C36.4941 47.7124 38.2367 47.3035 39.7623 46.7077C41.3401 46.0904 42.6775 45.2684 44.0081 43.9317C45.3385 42.5957 46.1566 41.2551 46.767 39.6751C47.358 38.1486 47.76 36.4028 47.8711 33.85C47.9831 31.2885 48.0096 30.4704 47.9971 23.954C47.9846 17.4369 47.9552 16.6204 47.8338 14.0614C47.7125 11.5061 47.3035 9.76348 46.7071 8.23779C46.0905 6.66007 45.2678 5.32404 43.9319 3.99204C42.5959 2.66154 41.2553 1.84188 39.6752 1.23307C38.1481 0.64207 36.4031 0.23932 33.8487 0.128883C31.2887 0.0153516 30.4715 -0.00949218 23.9537 0.00288282C17.4374 0.0153516 16.6202 0.0432891 14.0603 0.166195Z" fill="#FFFEE9"/>
</g>
<defs>
<clipPath id="clip0_202_562">
<rect width="48" height="48" fill="white"/>
</clipPath>
</defs>
</svg>
