<svg width="48" height="48" viewBox="0 0 48 48" fill="none" xmlns="http://www.w3.org/2000/svg">
<g clip-path="url(#clip0_202_564)">
<path fill-rule="evenodd" clip-rule="evenodd" d="M47.51 14.4024C47.51 14.4024 47.0414 11.0938 45.5993 9.64101C43.7718 7.73024 41.7255 7.71786 40.79 7.60716C34.078 7.11816 23.9972 7.11816 23.9972 7.11816H23.9795C23.9795 7.11816 13.9031 7.11816 7.18755 7.60716C6.24855 7.72139 4.20495 7.72941 2.37832 9.64101C0.935323 11.0938 0.476473 14.4024 0.476473 14.4024C0.476473 14.4024 -0.000976562 18.285 -0.000976562 22.1756V25.8138C-0.000976562 29.6964 0.476473 33.587 0.476473 33.587C0.476473 33.587 0.945073 36.8956 2.37832 38.351C4.20495 40.2618 6.60555 40.1998 7.67745 40.4035C11.5202 40.7703 24.0007 40.881 24.0007 40.881C24.0007 40.881 34.0904 40.8632 40.8024 40.3831C41.7414 40.2724 43.7841 40.2609 45.6116 38.3492C47.0546 36.8965 47.5223 33.5843 47.5223 33.5843C47.5223 33.5843 47.9999 29.7018 47.9999 25.8111V22.173C47.9902 18.2903 47.5126 14.3998 47.5126 14.3998L47.51 14.4024ZM19.025 30.2279V16.7375L31.9919 23.5053L19.025 30.2279Z" fill="#FFFEE9"/>
</g>
<defs>
<clipPath id="clip0_202_564">
<rect width="48" height="48" fill="white"/>
</clipPath>
</defs>
</svg>
